<mxfile host="app.diagrams.net" modified="2020-08-12T17:40:16.848Z" agent="5.0 (Windows NT 10.0; Win64; x64) AppleWebKit/537.36 (KHTML, like Gecko) Chrome/84.0.4147.105 Safari/537.36 Edg/84.0.522.58" etag="IxTtQ3Z2Pnjk3Kmu7uyA" version="13.6.2" type="github">
  <diagram id="xu6ZPtf49BYFuctMmxxb" name="第 1 页">
    <mxGraphModel dx="898" dy="482" grid="1" gridSize="10" guides="1" tooltips="1" connect="1" arrows="1" fold="1" page="1" pageScale="1" pageWidth="827" pageHeight="1169" math="0" shadow="0">
      <root>
        <mxCell id="0" />
        <mxCell id="1" parent="0" />
        <mxCell id="a3hWxj5Mun3ZJ8yXzgUf-2" value="" style="shape=orEllipse;perimeter=ellipsePerimeter;whiteSpace=wrap;html=1;backgroundOutline=1;strokeWidth=1;shadow=1;fillColor=#ffe6cc;strokeColor=#d79b00;" vertex="1" parent="1">
          <mxGeometry x="344" y="70" width="206" height="180" as="geometry" />
        </mxCell>
        <mxCell id="a3hWxj5Mun3ZJ8yXzgUf-6" style="edgeStyle=orthogonalEdgeStyle;rounded=0;orthogonalLoop=1;jettySize=auto;html=1;entryX=1;entryY=1;entryDx=0;entryDy=0;" edge="1" parent="1" source="a3hWxj5Mun3ZJ8yXzgUf-5" target="a3hWxj5Mun3ZJ8yXzgUf-2">
          <mxGeometry relative="1" as="geometry" />
        </mxCell>
        <mxCell id="a3hWxj5Mun3ZJ8yXzgUf-5" value="&lt;p style=&quot;line-height: 90%&quot;&gt;&lt;font style=&quot;font-size: 28px&quot;&gt;font&lt;/font&gt;&lt;/p&gt;" style="rounded=1;whiteSpace=wrap;html=1;shadow=1;strokeWidth=1;fillColor=#fff2cc;strokeColor=#d6b656;" vertex="1" parent="1">
          <mxGeometry x="610" y="210" width="120" height="60" as="geometry" />
        </mxCell>
      </root>
    </mxGraphModel>
  </diagram>
</mxfile>
